<?xml version="1.0" encoding="utf-8"?>
<!-- Generator: Adobe Illustrator 16.0.0, SVG Export Plug-In . SVG Version: 6.00 Build 0)  -->
<!DOCTYPE svg PUBLIC "-//W3C//DTD SVG 1.1//EN" "http://www.w3.org/Graphics/SVG/1.1/DTD/svg11.dtd">
<svg version="1.1" id="Layer_1" xmlns="http://www.w3.org/2000/svg" xmlns:xlink="http://www.w3.org/1999/xlink" x="0px" y="0px"
	 width="105px" height="95px" viewBox="0 0 105 95" enable-background="new 0 0 105 95" xml:space="preserve">
<rect display="none" fill="#999999" width="105" height="95"/>
<g>
	<path fill="#CCCCCC" d="M16.601,84h-3.538v-6.391c0-1.781-0.636-2.673-1.909-2.673c-0.614,0-1.119,0.235-1.516,0.708
		c-0.397,0.471-0.595,1.07-0.595,1.797V84H5.494V72.5h3.549v1.818h0.045c0.846-1.399,2.078-2.1,3.695-2.1
		c2.545,0,3.818,1.58,3.818,4.739V84z"/>
	<path fill="#CCCCCC" d="M37.669,84h-3.538v-6.559c0-1.67-0.614-2.505-1.842-2.505c-0.584,0-1.06,0.251-1.426,0.753
		c-0.367,0.501-0.55,1.127-0.55,1.875V84h-3.549v-6.627c0-1.624-0.603-2.437-1.808-2.437c-0.606,0-1.091,0.239-1.455,0.719
		c-0.363,0.479-0.544,1.13-0.544,1.954V84h-3.549V72.5h3.549v1.797h0.045c0.367-0.614,0.881-1.114,1.544-1.5
		c0.662-0.385,1.387-0.578,2.173-0.578c1.625,0,2.736,0.715,3.335,2.145c0.876-1.43,2.164-2.145,3.863-2.145
		c2.5,0,3.751,1.543,3.751,4.627V84z"/>
	<path fill="#CCCCCC" d="M39.724,83.696v-2.875c0.584,0.353,1.166,0.614,1.746,0.786c0.581,0.172,1.129,0.258,1.646,0.258
		c0.629,0,1.125-0.086,1.488-0.258c0.363-0.172,0.544-0.434,0.544-0.786c0-0.225-0.083-0.411-0.247-0.562s-0.376-0.281-0.634-0.393
		c-0.259-0.113-0.541-0.214-0.848-0.304s-0.603-0.19-0.887-0.304c-0.457-0.172-0.859-0.357-1.207-0.555
		c-0.349-0.199-0.641-0.43-0.876-0.691c-0.236-0.262-0.416-0.565-0.539-0.91c-0.124-0.344-0.186-0.752-0.186-1.224
		c0-0.644,0.141-1.198,0.421-1.662c0.281-0.464,0.655-0.845,1.123-1.14c0.468-0.296,1.003-0.514,1.606-0.652
		c0.603-0.138,1.229-0.207,1.881-0.207c0.509,0,1.026,0.039,1.55,0.117c0.524,0.08,1.041,0.193,1.55,0.344v2.74
		c-0.449-0.263-0.93-0.459-1.443-0.59c-0.513-0.131-1.016-0.197-1.51-0.197c-0.232,0-0.451,0.021-0.657,0.063
		c-0.206,0.041-0.388,0.102-0.545,0.18s-0.281,0.18-0.371,0.303s-0.135,0.264-0.135,0.422c0,0.209,0.067,0.389,0.202,0.539
		c0.135,0.149,0.311,0.278,0.528,0.387c0.217,0.109,0.458,0.206,0.725,0.293c0.266,0.086,0.529,0.174,0.792,0.264
		c0.472,0.164,0.898,0.344,1.28,0.539c0.382,0.194,0.709,0.422,0.983,0.685c0.273,0.263,0.482,0.569,0.629,0.921
		c0.146,0.352,0.219,0.771,0.219,1.258c0,0.682-0.148,1.264-0.443,1.746c-0.296,0.482-0.689,0.877-1.18,1.18
		c-0.49,0.303-1.056,0.523-1.695,0.662c-0.641,0.139-1.305,0.208-1.994,0.208C41.974,84.28,40.802,84.086,39.724,83.696z"/>
	<path fill="#CCCCCC" d="M61.523,84h-3.539v-1.752H57.93c-0.877,1.354-2.049,2.032-3.516,2.032c-2.666,0-3.999-1.613-3.999-4.841
		V72.5h3.538v6.625c0,1.625,0.645,2.438,1.932,2.438c0.637,0,1.146-0.223,1.527-0.668c0.383-0.445,0.572-1.051,0.572-1.814V72.5
		h3.539V84z"/>
</g>
<g>
	<path fill="#892345" d="M59.576,84.281c-0.584,0-1.07-0.18-1.459-0.539c-0.39-0.359-0.584-0.802-0.584-1.326
		c0-0.539,0.199-0.98,0.6-1.324c0.401-0.345,0.9-0.518,1.5-0.518c0.606,0,1.103,0.175,1.488,0.522
		c0.385,0.349,0.578,0.788,0.578,1.319c0,0.547-0.197,0.994-0.59,1.343C60.717,84.106,60.205,84.281,59.576,84.281z"/>
	<path fill="#CCCCCC" d="M74.559,79.261h-7.502c0.119,1.67,1.172,2.505,3.155,2.505c1.265,0,2.377-0.3,3.335-0.898v2.561
		c-1.063,0.568-2.443,0.854-4.144,0.854c-1.856,0-3.298-0.516-4.323-1.545c-1.026-1.029-1.539-2.465-1.539-4.307
		c0-1.909,0.555-3.422,1.662-4.537s2.471-1.674,4.088-1.674c1.678,0,2.975,0.498,3.892,1.494s1.376,2.348,1.376,4.055V79.261z
		 M71.268,77.082c0-1.647-0.666-2.471-1.999-2.471c-0.569,0-1.062,0.236-1.477,0.707c-0.416,0.473-0.669,1.06-0.759,1.764H71.268z"
		/>
	<path fill="#CCCCCC" d="M87.922,84h-3.549v-1.584h-0.045c-0.809,1.243-1.994,1.865-3.56,1.865c-1.438,0-2.595-0.508-3.47-1.522
		c-0.877-1.015-1.314-2.431-1.314-4.251c0-1.901,0.482-3.425,1.449-4.57c0.965-1.146,2.23-1.719,3.795-1.719
		c1.482,0,2.516,0.532,3.1,1.596h0.045v-6.84h3.549V84z M84.441,78.407v-0.864c0-0.749-0.218-1.371-0.652-1.865
		c-0.434-0.494-0.999-0.74-1.695-0.74c-0.786,0-1.4,0.309-1.842,0.926c-0.441,0.618-0.662,1.466-0.662,2.544
		c0,1.011,0.213,1.789,0.64,2.336s1.019,0.819,1.774,0.819c0.719,0,1.305-0.288,1.758-0.864S84.441,79.358,84.441,78.407z"/>
	<path fill="#CCCCCC" d="M101.838,84h-3.539v-1.752h-0.055c-0.877,1.355-2.049,2.033-3.516,2.033c-2.666,0-3.998-1.614-3.998-4.841
		V72.5h3.537v6.626c0,1.625,0.645,2.437,1.932,2.437c0.637,0,1.146-0.223,1.527-0.668c0.383-0.445,0.572-1.05,0.572-1.813V72.5
		h3.539V84z"/>
</g>
<g>
	<path d="M20.681,52.262h-0.098v2.905h-7.715V18.155h7.715v15.771h0.098c1.904-2.913,4.614-4.37,8.13-4.37
		c3.223,0,5.705,1.107,7.446,3.32c1.741,2.214,2.612,5.241,2.612,9.082c0,4.167-1.018,7.512-3.052,10.034
		c-2.035,2.522-4.753,3.784-8.154,3.784C24.587,55.777,22.259,54.605,20.681,52.262z M20.461,41.715v2.563
		c0,1.611,0.464,2.946,1.392,4.004s2.116,1.587,3.564,1.587c1.758,0,3.121-0.68,4.089-2.039c0.968-1.359,1.453-3.284,1.453-5.774
		c0-2.067-0.444-3.682-1.331-4.846c-0.887-1.164-2.153-1.746-3.796-1.746c-1.546,0-2.828,0.578-3.845,1.733
		C20.969,38.354,20.461,39.859,20.461,41.715z"/>
	<path d="M47.78,26.212c-1.302,0-2.368-0.386-3.198-1.16c-0.83-0.773-1.245-1.721-1.245-2.844c0-1.155,0.415-2.1,1.245-2.832
		s1.896-1.099,3.198-1.099c1.318,0,2.388,0.366,3.21,1.099c0.822,0.732,1.233,1.677,1.233,2.832c0,1.172-0.411,2.132-1.233,2.881
		C50.168,25.838,49.099,26.212,47.78,26.212z M51.589,55.167h-7.715v-25h7.715V55.167z"/>
	<path d="M69.997,55.777c-4.167,0-7.442-1.168-9.827-3.504c-2.384-2.335-3.576-5.505-3.576-9.509c0-4.134,1.237-7.369,3.711-9.705
		c2.474-2.335,5.818-3.503,10.034-3.503c4.15,0,7.405,1.168,9.766,3.503c2.359,2.336,3.54,5.424,3.54,9.265
		c0,4.15-1.217,7.431-3.65,9.839C77.562,54.573,74.229,55.777,69.997,55.777z M70.192,35.465c-1.823,0-3.239,0.627-4.248,1.88
		c-1.01,1.253-1.514,3.027-1.514,5.322c0,4.802,1.937,7.202,5.811,7.202c3.694,0,5.542-2.466,5.542-7.397
		C75.783,37.801,73.919,35.465,70.192,35.465z"/>
	<path fill="#892345" d="M92.092,55.777c-1.27,0-2.328-0.391-3.174-1.172c-0.847-0.781-1.27-1.741-1.27-2.881
		c0-1.172,0.436-2.132,1.307-2.881c0.87-0.748,1.956-1.123,3.259-1.123c1.318,0,2.396,0.379,3.235,1.135
		c0.838,0.758,1.257,1.714,1.257,2.869c0,1.188-0.427,2.16-1.282,2.918C94.57,55.398,93.459,55.777,92.092,55.777z"/>
</g>
</svg>
