<?xml version="1.0" encoding="utf-8"?>
<!-- Generator: Adobe Illustrator 16.0.0, SVG Export Plug-In . SVG Version: 6.00 Build 0)  -->
<!DOCTYPE svg PUBLIC "-//W3C//DTD SVG 1.1//EN" "http://www.w3.org/Graphics/SVG/1.1/DTD/svg11.dtd">
<svg version="1.1" id="Layer_1" xmlns="http://www.w3.org/2000/svg" xmlns:xlink="http://www.w3.org/1999/xlink" x="0px" y="0px"
	 width="1200px" height="675px" viewBox="0 0 1200 675" enable-background="new 0 0 1200 675" xml:space="preserve">
<g>
	<path fill="#FFFFFF" d="M520.688,515.813c38.25,29.813,75.938,46.125,77.625,46.688l2.813,1.125l2.813-1.125
		c1.688-0.563,38.813-16.875,77.063-46.688c51.188-39.938,78.188-85.5,78.188-132.188v-211.5h-317.25V380.25
		C441.938,428.063,468.938,475.313,520.688,515.813z M593.25,450.563c-1.688-0.563-3.375-1.125-5.625-1.125c0,0,0,0-0.563,0
		c-7.875,0-13.5,0.563-19.688,1.125S555,451.688,546,451.688c-3.938,0-7.875,0-10.688,0v-99c0.563,0,1.125,0,1.125,0
		c3.938,0,8.438,0,14.625,0c5.063,0,10.688-0.563,16.875-1.125c3.375-0.563,7.313-0.563,11.25-1.125
		c6.75-0.563,12.375,0.563,12.375,0.563c0.563,0,1.125,0.563,1.688,0.563C593.25,351,593.25,450.563,593.25,450.563z M744,383.625
		C744,470.25,637.688,528.75,606.188,544.5v-78.75c0.563-0.563,1.125-1.125,1.688-1.688c1.688-1.688,2.813-2.813,5.625-2.813
		c7.313,0,12.938,0.563,19.125,1.125S645,463.5,654.563,463.5s16.875,0,16.875,0h5.063v-29.25h12.375V418.5H676.5v-28.688h12.375
		v-15.75H676.5V342h-5.625c-2.25,0-4.5,0-7.313,0c-3.938,0-8.438,0-14.063,0c-4.5,0-9.563-0.563-15.75-1.125
		c-3.375-0.563-7.313-0.563-11.25-1.125c-8.438-1.125-15.75,0.563-16.313,0.563c0,0,0,0-0.563,0v-30.938h137.813L744,383.625z
		 M606.188,451.125v-99.563C606.75,351,607.875,351,609,350.438c0,0,6.188-1.125,12.938-0.563c3.938,0.563,7.875,0.563,11.25,1.125
		c6.188,0.563,11.813,1.125,16.875,1.125s9,0,12.938,0c1.125,0,2.25,0,2.813,0v99.563c-2.813,0-6.75,0-10.688,0
		c-9,0-15.188-0.563-21.375-1.125s-11.813-1.125-19.688-1.125C610.688,450,608.438,450.563,606.188,451.125z M457.125,187.313H744
		V294.75H457.125V187.313z M457.125,309.375h136.688v29.813c-2.25-0.563-8.438-1.125-15.188-0.563
		c-3.938,0.563-7.875,0.563-11.25,1.125c-6.188,0.563-11.25,1.125-15.75,1.125c-5.625,0-10.125,0-14.063,0c-2.813,0-5.063,0-7.313,0
		h-5.625v28.688h-13.5v15.75h13.5V414h-13.5v15.75h13.5v32.063h5.063c0.563,0,7.875,0.563,16.875,0
		c9.563,0,16.313-0.563,21.938-1.125c6.188-0.563,11.25-1.125,18.563-1.125c2.813,0,3.938,1.125,5.063,2.813l0.563,0.563v79.313
		c-32.063-14.625-135.563-72.563-135.563-162V309.375z"/>
	<path fill="#FFFFFF" d="M576.938,198H496.5v5.625c0,17.438,0,47.25,0,48.375c0.563,6.188,4.5,11.813,12.375,16.875
		c9.563,6.75,24.188,15.188,24.75,15.188l2.813,1.688l2.813-1.688c0.563-0.563,16.313-9,25.875-15.188
		c11.25-7.313,11.813-14.625,11.813-16.875c0-1.125,0-27,0-48.375V198z M507.75,209.25h57.375c0,4.5,0,9.563,0,14.625H507.75
		C507.75,218.813,507.75,213.75,507.75,209.25z M565.688,251.438c0,2.813-3.938,5.625-6.75,7.875c-6.75,4.5-17.438,10.688-22.5,13.5
		c-4.5-2.813-14.625-8.438-21.375-13.5c-4.5-2.813-7.313-6.188-7.313-8.438c0-0.563,0-7.313,0-16.313h57.375
		C565.688,243.563,565.688,250.313,565.688,251.438z"/>
	<path fill="#FFFFFF" d="M713.063,195.75H631.5v5.625c0,21.938,0,48.375,0,50.063c0.563,6.188,4.5,11.813,12.375,16.875
		c10.125,6.75,24.75,15.188,25.313,15.75L672,285.75l2.813-1.688c0.563-0.563,16.875-9,26.438-15.75
		c11.813-7.875,11.813-14.625,11.813-16.875c0-1.125,0-27.563,0-49.5V195.75z M701.813,250.313c0,2.813-3.938,6.188-6.75,7.875
		c-7.313,4.5-18,10.688-23.063,13.5c-5.063-2.813-14.625-9-21.938-13.5c-2.25-1.688-7.313-5.063-7.313-8.438
		c0-0.563,0-1.125,0-2.813l28.125-20.25l30.938,20.813C701.813,249.188,701.813,250.313,701.813,250.313z M670.875,212.625
		l-28.125,20.25c0-7.875,0-18,0-26.438h59.625c0,9,0,18.563,0,27L670.875,212.625z"/>
	<path fill="#FFFFFF" d="M620.813,374.063l5.625,0.563c3.375,0.563,6.75,0.563,9.563,0.563l16.313,0.563V364.5L636,363.938
		c-2.25,0-5.063-0.563-8.438-0.563l-5.625-0.563c-1.688,0-2.813,0-3.938,0l0.563,11.25C619.125,373.5,620.25,373.5,620.813,374.063z
		"/>
	<path fill="#FFFFFF" d="M636,394.875c-2.25,0-5.063-0.563-8.438-0.563c-1.688,0-3.938-0.563-5.625-0.563s-2.813,0-3.938,0V405
		c0.563,0,1.688,0,2.813,0c2.25,0,3.938,0.563,5.625,0.563c3.375,0.563,6.188,0.563,9,0.563c3.375,0,8.438,0,12.375,0h4.5v-11.25
		h-4.5C644.438,395.438,639.375,394.875,636,394.875z"/>
	<path fill="#FFFFFF" d="M636,426.375c-2.25,0-5.063-0.563-8.438-0.563c-1.688,0-3.938-0.563-5.625-0.563s-2.813,0-3.938,0
		l0.563,11.25c0.563,0,1.688,0,2.813,0c2.25,0,3.938,0.563,5.625,0.563c3.375,0.563,6.75,0.563,9,0.563h4.5
		c4.5,0,10.125,0,11.813,0.563v-11.25c-1.688,0-7.313,0-11.813-0.563H636z"/>
	<path fill="#FFFFFF" d="M565.125,375.188c2.813,0,5.625-0.563,9.563-0.563c1.688,0,3.375-0.563,5.625-0.563
		c1.125,0,1.688,0,2.813,0v-11.25c-1.125,0-2.25,0-3.938,0c-2.25,0-3.938,0.563-5.625,0.563c-3.375,0.563-6.188,0.563-8.438,0.563
		l-16.313,0.563v11.25L565.125,375.188z"/>
	<path fill="#FFFFFF" d="M573.563,394.313c-3.375,0.563-6.188,0.563-8.438,0.563l-16.313,0.563v11.25l16.313-0.563
		c2.813,0,5.625-0.563,9.563-0.563L579.75,405c1.125,0,1.688,0,2.25,0l0.563-11.25c-1.125,0-2.25,0-3.938,0L573.563,394.313z"/>
	<path fill="#FFFFFF" d="M573.563,425.25c-3.375,0.563-6.188,0.563-9,0.563c-5.063,0-13.5,0.563-15.75,0.563v11.25
		c2.25,0,10.688-0.563,16.313-0.563c2.813,0,5.625-0.563,9.563-0.563l5.625-0.563c0.563,0,1.688,0,2.25,0v-11.25
		c-1.125,0-2.25,0-3.938,0L573.563,425.25z"/>
	<path fill="#FFFFFF" d="M314.813,339.188c14.063,0,22.5-9,23.625-24.75c0-2.813,0-6.75-0.563-10.688v-1.125h-11.813l1.125,2.25
		c0.563,1.688,1.125,5.625,1.125,9c-0.563,7.875-6.75,12.938-15.188,12.375c-9-0.563-14.063-6.188-14.063-14.063
		c0-2.813,0.563-5.625,2.813-8.438l1.688-2.25l-11.25-1.688l-0.563,1.125c-1.688,3.375-2.25,7.313-2.813,10.688
		c-1.125,16.313,7.875,27,24.188,27.563C313.688,339.188,314.25,339.188,314.813,339.188z"/>
	<path fill="#FFFFFF" d="M317.063,284.063c3.375,1.125,6.188,1.125,9,1.125c10.688,0,18.563-6.188,21.938-16.875
		c1.688-6.75,1.125-12.375-1.688-18c-3.375-5.625-9-9.563-16.313-11.813c-2.813-1.125-6.188-1.125-8.438-1.125
		c-10.688,0-18.563,6.188-21.938,16.875C295.125,268.313,301.875,279.563,317.063,284.063z M309.188,257.625
		c1.688-6.188,6.75-7.313,10.688-7.313c1.688,0,3.938,0.563,6.188,1.125c5.063,1.688,9,3.938,10.688,7.313
		c1.125,2.25,1.688,4.5,0.563,7.313c-1.688,6.188-6.75,7.313-10.688,7.313c-2.25,0-3.938-0.563-6.188-1.125
		C313.688,270,306.938,264.938,309.188,257.625z"/>
	<path fill="#FFFFFF" d="M365.438,221.063l-16.313-9l0.563-1.125c1.688-2.813,2.813-2.813,5.063-2.25l16.313,2.25l6.188-11.813
		l-21.375-2.25c-1.688,0-2.813,0-3.938,0c0-4.5-2.25-9-6.75-11.25c-2.25-1.125-4.5-1.688-6.75-1.688
		c-7.875,0-11.813,7.875-15.75,15.188l-5.625,10.688l42.75,23.063L365.438,221.063z M340.125,205.875L339.563,207l-7.875-3.938
		l0.563-1.125c1.688-3.375,3.938-6.75,7.313-5.063c1.125,0.563,1.688,1.125,2.25,2.25
		C342.375,201.375,341.25,204.188,340.125,205.875z"/>
	<polygon fill="#FFFFFF" points="391.875,178.313 369.938,160.313 401.438,167.625 409.875,156.938 372.75,126 364.875,135 
		387.375,153.563 355.875,146.25 346.875,156.938 384.563,187.875 	"/>
	<polygon fill="#FFFFFF" points="446.438,126 439.688,118.125 426.188,128.813 420,121.5 432.375,111.375 425.625,103.5 
		413.25,113.625 408.75,107.438 422.25,96.75 415.5,88.313 392.438,106.875 422.813,144.563 	"/>
	<polygon fill="#FFFFFF" points="486.375,101.813 481.313,92.813 466.125,101.25 447.563,68.063 436.875,74.25 460.5,116.438 	"/>
	<polygon fill="#FFFFFF" points="527.438,86.063 523.5,76.5 507.75,82.125 494.813,46.688 483,50.625 499.313,96.188 	"/>
	<path fill="#FFFFFF" d="M576.375,78.188c1.125,0,1.688,0,2.813,0c6.75-0.563,11.813-2.813,14.625-6.188s3.938-8.438,3.375-14.063
		l-2.25-30.375l-12.375,0.563l2.25,27.563c0.563,9.563-3.375,11.25-6.75,11.813c-0.563,0-0.563,0-1.125,0
		c-2.813,0-6.75-1.125-7.875-10.688l-2.25-27.563l-12.375,1.125l2.25,30.375C558.938,72,565.125,78.188,576.375,78.188z"/>
	<polygon fill="#FFFFFF" points="632.063,49.5 642.188,79.313 656.25,81.563 662.438,33.188 650.625,31.5 646.688,60.188 
		636.563,29.813 623.063,28.125 616.313,75.938 628.125,77.625 	"/>
	<polygon fill="#FFFFFF" points="699,43.875 687.188,39.938 672.563,86.063 684.375,90 	"/>
	<polygon fill="#FFFFFF" points="759.75,70.875 749.063,65.25 725.438,89.438 730.5,56.25 718.688,50.063 711.375,101.25 
		723.75,106.875 	"/>
	<polygon fill="#FFFFFF" points="772.125,140.625 778.313,132.188 764.813,121.5 770.438,114.188 782.813,123.75 789.563,115.313 
		777.188,105.75 781.688,99.563 795.188,110.25 801.938,101.813 778.313,83.813 748.5,122.063 	"/>
	<path fill="#FFFFFF" d="M792.375,160.875l14.063-12.375l0.563,1.125c1.688,2.25,1.688,2.813,0.563,5.625l-7.875,14.625l9,10.125
		l9.563-19.125c0.563-0.563,1.125-2.25,1.125-3.938c3.938,1.688,9,1.125,12.938-2.25c10.688-9,2.25-18.563-3.938-25.875l-7.875-9
		l-36.563,32.063L792.375,160.875z M821.063,135.563l0.563,1.125c1.688,2.25,3.375,4.5,3.375,6.188c0,1.125-0.563,1.688-1.688,2.25
		c-0.563,1.125-1.688,1.125-2.25,1.125c-2.25,0-4.5-2.25-5.625-3.938l-0.563-1.125L821.063,135.563z"/>
	<path fill="#FFFFFF" d="M837.375,199.688c-2.25,1.688-5.625-1.125-6.75-3.375c-1.688-2.813-2.25-5.625-2.25-9.563v-2.813
		L817.125,189l0.563,2.25c1.125,3.938,1.688,6.188,3.938,10.125c3.938,6.75,9,10.125,14.625,10.125c2.813,0,5.063-0.563,7.875-2.25
		c8.438-5.063,7.313-12.938,6.188-19.125c-0.563-3.938-1.125-6.75,0.563-7.875c1.125-0.563,1.688-0.563,2.25-0.563
		c2.25,0,3.938,2.25,4.5,2.813c1.688,2.25,2.25,5.063,2.813,7.875l0.563,2.25l10.125-4.5V189c-0.563-3.375-2.25-6.75-4.5-10.688
		c-5.063-9-14.063-11.813-21.938-6.75c-8.438,5.063-7.313,12.938-6.188,18.563C839.063,195.75,839.625,198.563,837.375,199.688z"/>
	
		<rect x="839.078" y="222.765" transform="matrix(-0.9259 0.3777 -0.3777 -0.9259 1749.0605 114.8887)" fill="#FFFFFF" width="48.374" height="12.375"/>
	<polygon fill="#FFFFFF" points="888,259.875 851.438,268.875 854.25,280.688 891.375,271.688 894.188,284.063 904.313,281.813 
		895.313,244.688 885.188,247.5 	"/>
	<polygon fill="#FFFFFF" points="859.875,318.375 860.438,330.75 879.563,329.625 909.938,345.375 909.375,331.875 891.375,323.438 
		908.25,312.75 907.125,298.125 879,317.813 	"/>
	<polygon fill="#FFFFFF" points="324.375,429.75 334.5,426.938 330.563,412.313 337.875,410.063 342.375,425.813 352.5,422.438 
		344.625,395.438 297.938,408.938 301.313,420.75 320.438,415.125 	"/>
	<path fill="#FFFFFF" d="M367.688,470.25c1.688-5.625,1.125-11.813-1.688-18c-4.5-9-11.25-13.5-20.25-13.5
		c-3.938,0-8.438,1.125-12.938,3.375C325.5,445.5,321,450.563,318.75,456.75c-1.688,5.625-1.125,11.813,1.688,18
		c4.5,8.438,11.25,13.5,20.25,13.5c3.938,0,8.438-1.125,12.938-3.375C360.938,480.938,366,476.438,367.688,470.25z M348.563,473.063
		c-2.813,1.688-6.188,2.25-9,2.25c-4.5,0-7.313-1.688-9-5.625c-1.125-2.813-1.688-5.063-0.563-7.313c1.125-3.375,4.5-6.75,9-9
		c2.813-1.125,5.625-2.25,8.438-2.25c4.5,0,7.313,1.688,9,5.625c1.125,2.813,1.688,5.063,0.563,7.313
		C355.875,467.438,353.063,470.813,348.563,473.063z"/>
	<path fill="#FFFFFF" d="M401.438,507.938L379.5,525.375c-5.625,4.5-10.125,5.063-13.5,1.125c-1.125-1.688-1.688-3.375-1.688-5.063
		c0.563-2.25,2.25-5.063,5.625-7.875l21.938-17.438L384,486.563l-24.188,19.125c-5.063,3.938-7.875,8.438-7.875,13.5
		c0,4.5,1.688,9,5.625,14.063c4.5,6.188,9.563,9,15.188,9c3.938,0,7.875-1.688,11.813-5.063L408.75,517.5L401.438,507.938z"/>
	<polygon fill="#FFFFFF" points="442.5,547.313 424.5,569.813 431.25,538.313 420.563,529.313 389.625,567 399.188,574.875 
		417.188,552.375 410.438,583.875 421.125,592.875 452.063,555.188 	"/>
	<path fill="#FFFFFF" d="M478.5,570.375l-12.375-6.188L444.188,607.5l12.375,6.188c6.188,2.813,11.25,4.5,16.313,4.5
		c8.438,0,15.188-4.5,19.688-13.5C499.875,590.063,494.813,578.813,478.5,570.375z M480.75,599.063
		c-2.25,5.063-6.75,7.875-11.813,7.875c-2.25,0-3.938-0.563-6.188-1.688l-2.813-1.688l12.375-24.75l2.813,1.688
		c3.375,1.688,5.625,4.5,6.75,7.313C483,591.75,482.438,595.125,480.75,599.063z"/>
	<polygon fill="#FFFFFF" points="505.5,634.5 534.188,642.375 537,632.25 520.125,627.75 522.375,618.75 538.125,622.688 
		540.938,612.563 525.188,608.625 526.875,600.75 544.313,605.25 546.563,595.125 517.875,587.813 	"/>
	<path fill="#FFFFFF" d="M576.938,599.063l-14.063-0.563l-2.813,48.375l14.063,0.563c1.125,0,2.25,0,3.375,0
		c16.313,0,24.75-7.875,25.875-23.063c0.563-7.313-1.125-13.5-5.063-18C593.813,602.438,587.063,599.625,576.938,599.063z
		 M576.375,637.313H573l1.688-27.563h3.375c6.75,0.563,12.938,5.625,12.375,14.625S583.125,637.313,576.375,637.313z"/>
	<path fill="#FFFFFF" d="M646.125,595.125l-8.438,51.188l12.938-2.813l1.688-10.688l15.75-3.375L674.25,639l13.5-2.813
		l-28.688-43.313L646.125,595.125z M654,622.125l1.688-12.938l6.75,10.688L654,622.125z"/>
	<polygon fill="#FFFFFF" points="692.25,620.438 696.75,632.25 708,627.75 704.063,616.5 	"/>
	<path fill="#FFFFFF" d="M715.875,571.5l-12.375,6.75L726.563,621l12.375-6.75c16.313-9,20.25-20.25,12.938-34.313
		C744.563,565.313,732.188,562.5,715.875,571.5z M735.563,604.125l-2.813,1.688l-12.938-24.188l2.813-1.688
		c1.688-1.125,3.938-1.688,6.188-1.688c5.063,0,9,2.813,11.813,7.313C745.125,593.438,741.188,600.75,735.563,604.125z"/>
	<polygon fill="#FFFFFF" points="761.438,586.688 768.188,596.813 778.313,589.5 771.563,579.375 	"/>
	<polygon fill="#FFFFFF" points="780.563,524.25 778.313,543.375 789,545.063 790.125,537.188 813.188,560.25 822.188,551.813 
		787.875,516.938 	"/>
	<path fill="#FFFFFF" d="M846.375,498.938c-3.938-2.813-8.438-3.375-13.5-1.688c0-4.5-2.25-9-5.625-11.25
		c-6.188-4.5-14.063-1.688-20.25,6.188c-5.625,7.875-5.063,15.75,1.688,20.813c3.375,2.25,7.875,2.813,11.813,1.688
		c-0.563,5.063,1.125,9,5.063,11.813c2.813,2.25,5.625,2.813,8.438,2.813c5.063,0,9.563-2.813,14.063-8.438
		c3.375-4.5,5.063-9,4.5-13.5C852,504.563,849.75,501.75,846.375,498.938z M823.313,502.313c-1.688,1.125-3.375,2.25-5.063,2.25
		c-0.563,0-1.688,0-2.25-0.563c-2.25-1.688-1.125-4.5,0-6.188c0.563-1.125,1.688-1.688,2.813-1.688c0.563,0,1.688,0.563,2.813,1.125
		C823.313,498.375,823.875,500.625,823.313,502.313z M840.188,515.813c-1.688,2.25-4.5,2.813-6.75,1.125
		c-1.688-1.688-2.813-3.375-2.25-6.75c3.375-2.25,6.188-2.813,8.438-1.125c1.125,0.563,1.688,1.688,1.688,2.813
		S840.75,514.688,840.188,515.813z"/>
	<path fill="#FFFFFF" d="M868.313,451.688c-8.438-3.938-16.313-1.688-20.25,6.188c-1.125,2.25-1.688,4.5-1.125,6.75
		c-2.813-2.25-5.625-6.188-3.375-11.25c1.125-2.25,2.813-3.938,4.5-5.625l1.688-1.125l-9-6.188l-1.125,1.125
		c-2.25,2.25-4.5,5.063-6.188,8.438c-2.25,5.063-2.813,9.563-1.125,14.063c2.813,7.875,10.688,13.5,16.875,16.313
		c5.625,2.813,10.125,3.938,14.063,3.938c6.188,0,10.688-2.813,14.063-9C881.813,465.188,878.438,456.75,868.313,451.688z
		 M868.313,469.688c-0.563,1.688-2.25,2.25-3.938,2.25c-1.125,0-2.813-0.563-3.938-1.125c-2.25-1.125-3.938-2.813-4.5-3.938
		s0-1.688,0-2.813c0.563-1.688,1.688-2.25,3.938-2.25c1.125,0,2.813,0.563,4.5,1.125c2.25,1.125,3.375,2.25,3.938,3.938
		C868.875,468,868.313,469.125,868.313,469.688z"/>
	<path fill="#FFFFFF" d="M885.75,402.188c-9.563-2.813-17.438,1.688-20.25,10.688c0,1.125-0.563,1.688-0.563,2.25l-5.625-1.688
		l5.063-16.875l-9.563-2.813l-8.438,28.125l27,8.438v-2.25c0-2.813,0.563-5.063,1.125-7.875c0.563-2.25,3.375-7.875,8.438-6.75
		c5.625,1.688,4.5,7.875,3.938,9.563c-1.125,3.375-2.813,5.625-4.5,7.875l-1.688,1.688l11.25,3.938l0.563-1.125
		c1.688-3.375,3.375-7.313,4.5-10.125c1.688-5.625,1.688-10.688-0.563-15.188C894.188,406.688,890.25,403.875,885.75,402.188z"/>
	<path fill="#FFFFFF" d="M354.188,337.5c0,135,109.688,245.25,244.688,245.25S843.563,473.063,843.563,337.5
		c0-135-109.688-244.688-244.688-244.688C464.438,92.25,354.188,202.5,354.188,337.5z M599.438,100.688
		c130.5,0,236.25,106.313,236.25,236.25c0,130.5-106.313,236.25-236.25,236.25c-130.5,0-236.25-106.313-236.25-236.25
		C362.625,207,468.938,100.688,599.438,100.688z"/>
	<path fill="#FFFFFF" d="M599.438,2.25c-185.063,0-335.25,150.188-335.25,335.25c0,184.5,150.188,335.25,335.25,335.25
		c184.5,0,335.25-150.188,335.25-335.25C934.125,152.438,783.938,2.25,599.438,2.25z M599.438,663.75
		c-180,0-326.25-146.25-326.25-326.25s146.25-326.25,326.25-326.25s326.25,146.25,326.25,326.25S779.438,663.75,599.438,663.75z"/>
</g>
</svg>
