<?xml version="1.0" encoding="utf-8"?>
<!-- Generator: Adobe Illustrator 16.0.0, SVG Export Plug-In . SVG Version: 6.00 Build 0)  -->
<!DOCTYPE svg PUBLIC "-//W3C//DTD SVG 1.1//EN" "http://www.w3.org/Graphics/SVG/1.1/DTD/svg11.dtd">
<svg version="1.1" xmlns="http://www.w3.org/2000/svg" xmlns:xlink="http://www.w3.org/1999/xlink" x="0px" y="0px" width="50px"
	 height="50px" viewBox="0 0 50 50" enable-background="new 0 0 50 50" xml:space="preserve">
<g id="Layer_2" display="none">
	<rect display="inline" fill="#58595B" width="50" height="50"/>
</g>
<g id="Layer_1">
	<g>
		<path fill="#FFFFFF" d="M45.503,21.93V36.2c0,2.923-2.353,5.3-5.245,5.3H9.745c-2.892,0-5.245-2.377-5.245-5.3V22.051l2.861,1.636
			V36.2c0,1.33,1.069,2.409,2.384,2.409h30.513c1.315,0,2.384-1.079,2.384-2.409V23.688L45.503,21.93z"/>
		<path fill="#FFFFFF" d="M27.568,29.105c-1.221,0.49-4.038,0.479-5.263,0C18.7,27.697,4.5,19.417,4.5,19.417s0-6.25,0-6.25
			c0-1.679,1.356-3.062,3.833-3.062H41.75c2.477,0,3.753,1.382,3.753,3.062c0,0,0,6.62,0,6.62S31.301,27.607,27.568,29.105z"/>
	</g>
</g>
</svg>
