<?xml version="1.0" encoding="utf-8"?>
<!-- Generator: Adobe Illustrator 16.0.0, SVG Export Plug-In . SVG Version: 6.00 Build 0)  -->
<!DOCTYPE svg PUBLIC "-//W3C//DTD SVG 1.1//EN" "http://www.w3.org/Graphics/SVG/1.1/DTD/svg11.dtd">
<svg version="1.1" id="Layer_1" xmlns="http://www.w3.org/2000/svg" xmlns:xlink="http://www.w3.org/1999/xlink" x="0px" y="0px"
	 width="50px" height="50px" viewBox="0 0 50 50" enable-background="new 0 0 50 50" xml:space="preserve">
<g id="Layer_2" display="none">
	<rect display="inline" fill="#6D6E71" width="50" height="50"/>
</g>
<g id="Layer_1_1_">
	<path fill="none" stroke="#FFFFFF" stroke-width="3" stroke-miterlimit="10" d="M14.446,25c0,10.049,8.034,17.452,9.754,18.195
		c0.805,0.349,5.735,1.361,6.624,1.361s2.013-0.479,2.781-0.902c0.771-0.424,1.949-2.633,1.949-2.633s-0.927-7.961-1.64-8.871
		c-0.483-0.616-3.158-1.053-5.414-1.129c-0.878-0.028-4.088,1.89-4.088,1.89c-1.935-1.438-1.54-2.716-1.464-7.91
		c-0.075-5.195-0.47-6.474,1.464-7.91c0,0,3.21,1.917,4.088,1.888c2.256-0.075,4.931-0.511,5.414-1.128
		c0.713-0.91,1.64-8.872,1.64-8.872s-1.179-2.208-1.949-2.632c-0.77-0.423-1.894-0.902-2.781-0.902c-0.889,0-5.819,1.012-6.624,1.36
		C22.479,7.549,14.446,14.951,14.446,25z"/>
</g>
</svg>
